<mxfile host="65bd71144e">
    <diagram id="ZzbQn7W3-mRiHGfWowW5" name="Page-1">
        <mxGraphModel dx="1580" dy="788" grid="1" gridSize="10" guides="1" tooltips="1" connect="1" arrows="1" fold="1" page="1" pageScale="1" pageWidth="850" pageHeight="1100" math="0" shadow="0">
            <root>
                <mxCell id="0"/>
                <mxCell id="1" parent="0"/>
                <mxCell id="106" value="" style="endArrow=none;html=1;entryX=0;entryY=0.5;entryDx=0;entryDy=0;exitX=1;exitY=0.5;exitDx=0;exitDy=0;" parent="1" source="110" target="117" edge="1">
                    <mxGeometry width="50" height="50" relative="1" as="geometry">
                        <mxPoint x="180" y="348" as="sourcePoint"/>
                        <mxPoint x="230" y="298" as="targetPoint"/>
                    </mxGeometry>
                </mxCell>
                <mxCell id="107" value="" style="shape=table;startSize=0;container=1;collapsible=0;childLayout=tableLayout;" parent="1" vertex="1">
                    <mxGeometry x="69.5" y="249" width="160" height="241" as="geometry"/>
                </mxCell>
                <mxCell id="108" value="" style="shape=tableRow;horizontal=0;startSize=0;swimlaneHead=0;swimlaneBody=0;top=0;left=0;bottom=0;right=0;collapsible=0;dropTarget=0;fillColor=none;points=[[0,0.5],[1,0.5]];portConstraint=eastwest;" parent="107" vertex="1">
                    <mxGeometry width="160" height="31" as="geometry"/>
                </mxCell>
                <mxCell id="109" value="Articles" style="shape=partialRectangle;html=1;whiteSpace=wrap;connectable=0;overflow=hidden;fillColor=none;top=0;left=0;bottom=0;right=0;pointerEvents=1;" parent="108" vertex="1">
                    <mxGeometry width="160" height="31" as="geometry">
                        <mxRectangle width="160" height="31" as="alternateBounds"/>
                    </mxGeometry>
                </mxCell>
                <mxCell id="110" value="" style="shape=tableRow;horizontal=0;startSize=0;swimlaneHead=0;swimlaneBody=0;top=0;left=0;bottom=0;right=0;collapsible=0;dropTarget=0;fillColor=none;points=[[0,0.5],[1,0.5]];portConstraint=eastwest;" parent="107" vertex="1">
                    <mxGeometry y="31" width="160" height="120" as="geometry"/>
                </mxCell>
                <mxCell id="111" value="# id: int&lt;br&gt;# image: string&lt;br&gt;# title: string&lt;br&gt;# description: string&lt;br&gt;# content: string&lt;br&gt;# Users : Users&lt;br&gt;# Categorys : Category" style="shape=partialRectangle;html=1;whiteSpace=wrap;connectable=0;overflow=hidden;fillColor=none;top=0;left=0;bottom=0;right=0;pointerEvents=1;align=left;" parent="110" vertex="1">
                    <mxGeometry width="160" height="120" as="geometry">
                        <mxRectangle width="160" height="120" as="alternateBounds"/>
                    </mxGeometry>
                </mxCell>
                <mxCell id="112" value="" style="shape=tableRow;horizontal=0;startSize=0;swimlaneHead=0;swimlaneBody=0;top=0;left=0;bottom=0;right=0;collapsible=0;dropTarget=0;fillColor=none;points=[[0,0.5],[1,0.5]];portConstraint=eastwest;" parent="107" vertex="1">
                    <mxGeometry y="151" width="160" height="90" as="geometry"/>
                </mxCell>
                <mxCell id="113" value="&lt;span style=&quot;&quot;&gt;+ addArticle&lt;/span&gt;&lt;span style=&quot;&quot;&gt;()&amp;nbsp;&lt;/span&gt;&lt;br style=&quot;&quot;&gt;&lt;span style=&quot;&quot;&gt;+ deleteArticle&lt;/span&gt;&lt;span style=&quot;&quot;&gt;($id)&amp;nbsp;&lt;/span&gt;&lt;br style=&quot;&quot;&gt;&lt;span style=&quot;&quot;&gt;+ updateArticle&lt;/span&gt;&lt;span style=&quot;&quot;&gt;($id)&lt;/span&gt;&lt;br style=&quot;&quot;&gt;&lt;span style=&quot;&quot;&gt;+ getArticle&lt;/span&gt;&lt;span style=&quot;&quot;&gt;()&amp;nbsp;&lt;br&gt;+ totaleArticle()&lt;br&gt;&lt;/span&gt;" style="shape=partialRectangle;html=1;whiteSpace=wrap;connectable=0;overflow=hidden;fillColor=none;top=0;left=0;bottom=0;right=0;pointerEvents=1;align=left;" parent="112" vertex="1">
                    <mxGeometry width="160" height="90" as="geometry">
                        <mxRectangle width="160" height="90" as="alternateBounds"/>
                    </mxGeometry>
                </mxCell>
                <mxCell id="114" value="" style="shape=table;startSize=0;container=1;collapsible=0;childLayout=tableLayout;" parent="1" vertex="1">
                    <mxGeometry x="389" y="278" width="180" height="180" as="geometry"/>
                </mxCell>
                <mxCell id="115" value="" style="shape=tableRow;horizontal=0;startSize=0;swimlaneHead=0;swimlaneBody=0;top=0;left=0;bottom=0;right=0;collapsible=0;dropTarget=0;fillColor=none;points=[[0,0.5],[1,0.5]];portConstraint=eastwest;" parent="114" vertex="1">
                    <mxGeometry width="180" height="29" as="geometry"/>
                </mxCell>
                <mxCell id="116" value="Categorys" style="shape=partialRectangle;html=1;whiteSpace=wrap;connectable=0;overflow=hidden;fillColor=none;top=0;left=0;bottom=0;right=0;pointerEvents=1;" parent="115" vertex="1">
                    <mxGeometry width="180" height="29" as="geometry">
                        <mxRectangle width="180" height="29" as="alternateBounds"/>
                    </mxGeometry>
                </mxCell>
                <mxCell id="117" value="" style="shape=tableRow;horizontal=0;startSize=0;swimlaneHead=0;swimlaneBody=0;top=0;left=0;bottom=0;right=0;collapsible=0;dropTarget=0;fillColor=none;points=[[0,0.5],[1,0.5]];portConstraint=eastwest;" parent="114" vertex="1">
                    <mxGeometry y="29" width="180" height="61" as="geometry"/>
                </mxCell>
                <mxCell id="118" value="&lt;div&gt;# id: int&lt;/div&gt;&lt;div&gt;&lt;span style=&quot;background-color: initial;&quot;&gt;# name: string&amp;nbsp; &amp;nbsp; &amp;nbsp; &amp;nbsp;&lt;/span&gt;&lt;/div&gt;&lt;div&gt;&lt;span style=&quot;background-color: initial;&quot;&gt;# description: string&lt;/span&gt;&lt;/div&gt;" style="shape=partialRectangle;html=1;whiteSpace=wrap;connectable=0;overflow=hidden;fillColor=none;top=0;left=0;bottom=0;right=0;pointerEvents=1;align=left;" parent="117" vertex="1">
                    <mxGeometry width="180" height="61" as="geometry">
                        <mxRectangle width="180" height="61" as="alternateBounds"/>
                    </mxGeometry>
                </mxCell>
                <mxCell id="119" value="" style="shape=tableRow;horizontal=0;startSize=0;swimlaneHead=0;swimlaneBody=0;top=0;left=0;bottom=0;right=0;collapsible=0;dropTarget=0;fillColor=none;points=[[0,0.5],[1,0.5]];portConstraint=eastwest;" parent="114" vertex="1">
                    <mxGeometry y="90" width="180" height="90" as="geometry"/>
                </mxCell>
                <mxCell id="120" value="+ addCategory()&lt;br&gt;+ deleteCategory($id)&amp;nbsp;&lt;br&gt;+ updateCategory($id)&lt;br&gt;+ getCategory()&lt;br&gt;+ totaleCategory()" style="shape=partialRectangle;html=1;whiteSpace=wrap;connectable=0;overflow=hidden;fillColor=none;top=0;left=0;bottom=0;right=0;pointerEvents=1;align=left;" parent="119" vertex="1">
                    <mxGeometry width="180" height="90" as="geometry">
                        <mxRectangle width="180" height="90" as="alternateBounds"/>
                    </mxGeometry>
                </mxCell>
                <mxCell id="128" value="" style="shape=table;startSize=0;container=1;collapsible=0;childLayout=tableLayout;" parent="1" vertex="1">
                    <mxGeometry x="340" y="547" width="160" height="193" as="geometry"/>
                </mxCell>
                <mxCell id="129" value="" style="shape=tableRow;horizontal=0;startSize=0;swimlaneHead=0;swimlaneBody=0;top=0;left=0;bottom=0;right=0;collapsible=0;dropTarget=0;fillColor=none;points=[[0,0.5],[1,0.5]];portConstraint=eastwest;" parent="128" vertex="1">
                    <mxGeometry width="160" height="38" as="geometry"/>
                </mxCell>
                <mxCell id="130" value="Users" style="shape=partialRectangle;html=1;whiteSpace=wrap;connectable=0;overflow=hidden;fillColor=none;top=0;left=0;bottom=0;right=0;pointerEvents=1;" parent="129" vertex="1">
                    <mxGeometry width="160" height="38" as="geometry">
                        <mxRectangle width="160" height="38" as="alternateBounds"/>
                    </mxGeometry>
                </mxCell>
                <mxCell id="131" value="" style="shape=tableRow;horizontal=0;startSize=0;swimlaneHead=0;swimlaneBody=0;top=0;left=0;bottom=0;right=0;collapsible=0;dropTarget=0;fillColor=none;points=[[0,0.5],[1,0.5]];portConstraint=eastwest;" parent="128" vertex="1">
                    <mxGeometry y="38" width="160" height="93" as="geometry"/>
                </mxCell>
                <mxCell id="132" value="# id: int&lt;br&gt;# username: string&lt;br&gt;# email: string&lt;br&gt;# password: string&lt;br&gt;# Role: Role" style="shape=partialRectangle;html=1;whiteSpace=wrap;connectable=0;overflow=hidden;fillColor=none;top=0;left=0;bottom=0;right=0;pointerEvents=1;align=left;" parent="131" vertex="1">
                    <mxGeometry width="160" height="93" as="geometry">
                        <mxRectangle width="160" height="93" as="alternateBounds"/>
                    </mxGeometry>
                </mxCell>
                <mxCell id="133" value="" style="shape=tableRow;horizontal=0;startSize=0;swimlaneHead=0;swimlaneBody=0;top=0;left=0;bottom=0;right=0;collapsible=0;dropTarget=0;fillColor=none;points=[[0,0.5],[1,0.5]];portConstraint=eastwest;" parent="128" vertex="1">
                    <mxGeometry y="131" width="160" height="62" as="geometry"/>
                </mxCell>
                <mxCell id="134" value="&lt;span style=&quot;&quot;&gt;+ register&lt;/span&gt;&lt;span style=&quot;&quot;&gt;()&amp;nbsp;&lt;/span&gt;&lt;br style=&quot;&quot;&gt;&lt;span style=&quot;&quot;&gt;+ login&lt;/span&gt;&lt;span style=&quot;&quot;&gt;()&amp;nbsp;&lt;br&gt;+ logout($id)&amp;nbsp;&lt;/span&gt;&lt;span style=&quot;&quot;&gt;&lt;br&gt;&lt;/span&gt;" style="shape=partialRectangle;html=1;whiteSpace=wrap;connectable=0;overflow=hidden;fillColor=none;top=0;left=0;bottom=0;right=0;pointerEvents=1;align=left;" parent="133" vertex="1">
                    <mxGeometry width="160" height="62" as="geometry">
                        <mxRectangle width="160" height="62" as="alternateBounds"/>
                    </mxGeometry>
                </mxCell>
                <mxCell id="136" value="" style="endArrow=none;html=1;exitX=0.563;exitY=-0.076;exitDx=0;exitDy=0;exitPerimeter=0;entryX=1.008;entryY=0.319;entryDx=0;entryDy=0;entryPerimeter=0;" parent="1" source="129" target="112" edge="1">
                    <mxGeometry width="50" height="50" relative="1" as="geometry">
                        <mxPoint x="420" y="498" as="sourcePoint"/>
                        <mxPoint x="470" y="468" as="targetPoint"/>
                        <Array as="points"/>
                    </mxGeometry>
                </mxCell>
                <mxCell id="137" value="1.*" style="text;html=1;align=center;verticalAlign=middle;resizable=0;points=[];autosize=1;strokeColor=none;fillColor=none;" parent="1" vertex="1">
                    <mxGeometry x="222" y="312" width="40" height="30" as="geometry"/>
                </mxCell>
                <mxCell id="138" value="1.1" style="text;html=1;align=center;verticalAlign=middle;resizable=0;points=[];autosize=1;strokeColor=none;fillColor=none;" parent="1" vertex="1">
                    <mxGeometry x="355" y="312" width="40" height="30" as="geometry"/>
                </mxCell>
                <mxCell id="141" value="1.1" style="text;html=1;align=center;verticalAlign=middle;resizable=0;points=[];autosize=1;strokeColor=none;fillColor=none;" parent="1" vertex="1">
                    <mxGeometry x="420" y="523" width="40" height="30" as="geometry"/>
                </mxCell>
                <mxCell id="142" value="1.*" style="text;html=1;align=center;verticalAlign=middle;resizable=0;points=[];autosize=1;strokeColor=none;fillColor=none;" parent="1" vertex="1">
                    <mxGeometry x="222" y="403" width="40" height="30" as="geometry"/>
                </mxCell>
                <mxCell id="143" value="" style="shape=table;startSize=0;container=1;collapsible=0;childLayout=tableLayout;" parent="1" vertex="1">
                    <mxGeometry x="600" y="570.5" width="160" height="95" as="geometry"/>
                </mxCell>
                <mxCell id="144" value="" style="shape=tableRow;horizontal=0;startSize=0;swimlaneHead=0;swimlaneBody=0;top=0;left=0;bottom=0;right=0;collapsible=0;dropTarget=0;fillColor=none;points=[[0,0.5],[1,0.5]];portConstraint=eastwest;" parent="143" vertex="1">
                    <mxGeometry width="160" height="23" as="geometry"/>
                </mxCell>
                <mxCell id="145" value="Role" style="shape=partialRectangle;html=1;whiteSpace=wrap;connectable=0;overflow=hidden;fillColor=none;top=0;left=0;bottom=0;right=0;pointerEvents=1;" parent="144" vertex="1">
                    <mxGeometry width="160" height="23" as="geometry">
                        <mxRectangle width="160" height="23" as="alternateBounds"/>
                    </mxGeometry>
                </mxCell>
                <mxCell id="146" value="" style="shape=tableRow;horizontal=0;startSize=0;swimlaneHead=0;swimlaneBody=0;top=0;left=0;bottom=0;right=0;collapsible=0;dropTarget=0;fillColor=none;points=[[0,0.5],[1,0.5]];portConstraint=eastwest;" parent="143" vertex="1">
                    <mxGeometry y="23" width="160" height="47" as="geometry"/>
                </mxCell>
                <mxCell id="147" value="&lt;div&gt;# id: int&lt;/div&gt;&lt;div&gt;&lt;span style=&quot;background-color: initial;&quot;&gt;# name: string&amp;nbsp; &amp;nbsp; &amp;nbsp; &amp;nbsp;&lt;/span&gt;&lt;/div&gt;" style="shape=partialRectangle;html=1;whiteSpace=wrap;connectable=0;overflow=hidden;fillColor=none;top=0;left=0;bottom=0;right=0;pointerEvents=1;align=left;" parent="146" vertex="1">
                    <mxGeometry width="160" height="47" as="geometry">
                        <mxRectangle width="160" height="47" as="alternateBounds"/>
                    </mxGeometry>
                </mxCell>
                <mxCell id="148" value="" style="shape=tableRow;horizontal=0;startSize=0;swimlaneHead=0;swimlaneBody=0;top=0;left=0;bottom=0;right=0;collapsible=0;dropTarget=0;fillColor=none;points=[[0,0.5],[1,0.5]];portConstraint=eastwest;" parent="143" vertex="1">
                    <mxGeometry y="70" width="160" height="25" as="geometry"/>
                </mxCell>
                <mxCell id="149" value="" style="shape=partialRectangle;html=1;whiteSpace=wrap;connectable=0;overflow=hidden;fillColor=none;top=0;left=0;bottom=0;right=0;pointerEvents=1;align=left;" parent="148" vertex="1">
                    <mxGeometry width="160" height="25" as="geometry">
                        <mxRectangle width="160" height="25" as="alternateBounds"/>
                    </mxGeometry>
                </mxCell>
                <mxCell id="150" value="" style="endArrow=none;html=1;entryX=-0.016;entryY=0.827;entryDx=0;entryDy=0;entryPerimeter=0;exitX=1;exitY=0.5;exitDx=0;exitDy=0;" parent="1" source="131" target="146" edge="1">
                    <mxGeometry width="50" height="50" relative="1" as="geometry">
                        <mxPoint x="490" y="688" as="sourcePoint"/>
                        <mxPoint x="540" y="638" as="targetPoint"/>
                    </mxGeometry>
                </mxCell>
                <mxCell id="151" value="1.*" style="text;html=1;align=center;verticalAlign=middle;resizable=0;points=[];autosize=1;strokeColor=none;fillColor=none;" parent="1" vertex="1">
                    <mxGeometry x="491" y="607" width="40" height="30" as="geometry"/>
                </mxCell>
                <mxCell id="152" value="1.1" style="text;html=1;align=center;verticalAlign=middle;resizable=0;points=[];autosize=1;strokeColor=none;fillColor=none;" parent="1" vertex="1">
                    <mxGeometry x="566" y="607" width="40" height="30" as="geometry"/>
                </mxCell>
                <mxCell id="153" value="" style="shape=table;startSize=0;container=1;collapsible=0;childLayout=tableLayout;" parent="1" vertex="1">
                    <mxGeometry x="340" y="850" width="160" height="170" as="geometry"/>
                </mxCell>
                <mxCell id="154" value="" style="shape=tableRow;horizontal=0;startSize=0;swimlaneHead=0;swimlaneBody=0;top=0;left=0;bottom=0;right=0;collapsible=0;dropTarget=0;fillColor=none;points=[[0,0.5],[1,0.5]];portConstraint=eastwest;" parent="153" vertex="1">
                    <mxGeometry width="160" height="31" as="geometry"/>
                </mxCell>
                <mxCell id="155" value="Commentairs" style="shape=partialRectangle;html=1;whiteSpace=wrap;connectable=0;overflow=hidden;fillColor=none;top=0;left=0;bottom=0;right=0;pointerEvents=1;" parent="154" vertex="1">
                    <mxGeometry width="160" height="31" as="geometry">
                        <mxRectangle width="160" height="31" as="alternateBounds"/>
                    </mxGeometry>
                </mxCell>
                <mxCell id="156" value="" style="shape=tableRow;horizontal=0;startSize=0;swimlaneHead=0;swimlaneBody=0;top=0;left=0;bottom=0;right=0;collapsible=0;dropTarget=0;fillColor=none;points=[[0,0.5],[1,0.5]];portConstraint=eastwest;" parent="153" vertex="1">
                    <mxGeometry y="31" width="160" height="79" as="geometry"/>
                </mxCell>
                <mxCell id="157" value="#&amp;nbsp; id: int&lt;br&gt;# username: string&lt;br&gt;# email: string&lt;br&gt;# commentair: string&lt;br&gt;# User : User" style="shape=partialRectangle;html=1;whiteSpace=wrap;connectable=0;overflow=hidden;fillColor=none;top=0;left=0;bottom=0;right=0;pointerEvents=1;align=left;" parent="156" vertex="1">
                    <mxGeometry width="160" height="79" as="geometry">
                        <mxRectangle width="160" height="79" as="alternateBounds"/>
                    </mxGeometry>
                </mxCell>
                <mxCell id="158" value="" style="shape=tableRow;horizontal=0;startSize=0;swimlaneHead=0;swimlaneBody=0;top=0;left=0;bottom=0;right=0;collapsible=0;dropTarget=0;fillColor=none;points=[[0,0.5],[1,0.5]];portConstraint=eastwest;" parent="153" vertex="1">
                    <mxGeometry y="110" width="160" height="60" as="geometry"/>
                </mxCell>
                <mxCell id="159" value="&lt;span style=&quot;&quot;&gt;+ addCommentair&lt;/span&gt;&lt;span style=&quot;&quot;&gt;(id)&amp;nbsp;&lt;br&gt;&lt;/span&gt;&lt;span style=&quot;&quot;&gt;+ deleteCommentair($id)&lt;br&gt;+ UpdateCommentair($id)&lt;br&gt;&lt;/span&gt;" style="shape=partialRectangle;html=1;whiteSpace=wrap;connectable=0;overflow=hidden;fillColor=none;top=0;left=0;bottom=0;right=0;pointerEvents=1;align=left;" parent="158" vertex="1">
                    <mxGeometry width="160" height="60" as="geometry">
                        <mxRectangle width="160" height="60" as="alternateBounds"/>
                    </mxGeometry>
                </mxCell>
                <mxCell id="160" value="" style="endArrow=none;html=1;exitX=0.459;exitY=0.023;exitDx=0;exitDy=0;exitPerimeter=0;" parent="1" source="154" edge="1" target="133">
                    <mxGeometry width="50" height="50" relative="1" as="geometry">
                        <mxPoint x="410" y="836.98" as="sourcePoint"/>
                        <mxPoint x="411.28" y="758" as="targetPoint"/>
                    </mxGeometry>
                </mxCell>
                <mxCell id="161" value="1.1" style="text;html=1;align=center;verticalAlign=middle;resizable=0;points=[];autosize=1;strokeColor=none;fillColor=none;" parent="1" vertex="1">
                    <mxGeometry x="412" y="739" width="40" height="30" as="geometry"/>
                </mxCell>
                <mxCell id="162" value="1.*" style="text;html=1;align=center;verticalAlign=middle;resizable=0;points=[];autosize=1;strokeColor=none;fillColor=none;" parent="1" vertex="1">
                    <mxGeometry x="405" y="824" width="40" height="30" as="geometry"/>
                </mxCell>
                <mxCell id="163" value="" style="shape=table;startSize=0;container=1;collapsible=0;childLayout=tableLayout;" parent="1" vertex="1">
                    <mxGeometry x="70.5" y="870" width="160" height="115" as="geometry"/>
                </mxCell>
                <mxCell id="164" value="" style="shape=tableRow;horizontal=0;startSize=0;swimlaneHead=0;swimlaneBody=0;top=0;left=0;bottom=0;right=0;collapsible=0;dropTarget=0;fillColor=none;points=[[0,0.5],[1,0.5]];portConstraint=eastwest;" parent="163" vertex="1">
                    <mxGeometry width="160" height="23" as="geometry"/>
                </mxCell>
                <mxCell id="165" value="Images" style="shape=partialRectangle;html=1;whiteSpace=wrap;connectable=0;overflow=hidden;fillColor=none;top=0;left=0;bottom=0;right=0;pointerEvents=1;" parent="164" vertex="1">
                    <mxGeometry width="160" height="23" as="geometry">
                        <mxRectangle width="160" height="23" as="alternateBounds"/>
                    </mxGeometry>
                </mxCell>
                <mxCell id="166" value="" style="shape=tableRow;horizontal=0;startSize=0;swimlaneHead=0;swimlaneBody=0;top=0;left=0;bottom=0;right=0;collapsible=0;dropTarget=0;fillColor=none;points=[[0,0.5],[1,0.5]];portConstraint=eastwest;" parent="163" vertex="1">
                    <mxGeometry y="23" width="160" height="67" as="geometry"/>
                </mxCell>
                <mxCell id="167" value="&lt;div&gt;# id: int&lt;/div&gt;&lt;div&gt;&lt;span style=&quot;background-color: initial;&quot;&gt;# image: string&amp;nbsp; &amp;nbsp; &amp;nbsp; &amp;nbsp;&lt;/span&gt;&lt;/div&gt;&lt;div&gt;&lt;span style=&quot;background-color: initial;&quot;&gt;# Section: Section&lt;/span&gt;&lt;/div&gt;" style="shape=partialRectangle;html=1;whiteSpace=wrap;connectable=0;overflow=hidden;fillColor=none;top=0;left=0;bottom=0;right=0;pointerEvents=1;align=left;" parent="166" vertex="1">
                    <mxGeometry width="160" height="67" as="geometry">
                        <mxRectangle width="160" height="67" as="alternateBounds"/>
                    </mxGeometry>
                </mxCell>
                <mxCell id="168" value="" style="shape=tableRow;horizontal=0;startSize=0;swimlaneHead=0;swimlaneBody=0;top=0;left=0;bottom=0;right=0;collapsible=0;dropTarget=0;fillColor=none;points=[[0,0.5],[1,0.5]];portConstraint=eastwest;" parent="163" vertex="1">
                    <mxGeometry y="90" width="160" height="25" as="geometry"/>
                </mxCell>
                <mxCell id="169" value="+ addImage($id)" style="shape=partialRectangle;html=1;whiteSpace=wrap;connectable=0;overflow=hidden;fillColor=none;top=0;left=0;bottom=0;right=0;pointerEvents=1;align=left;" parent="168" vertex="1">
                    <mxGeometry width="160" height="25" as="geometry">
                        <mxRectangle width="160" height="25" as="alternateBounds"/>
                    </mxGeometry>
                </mxCell>
                <mxCell id="180" value="" style="shape=table;startSize=0;container=1;collapsible=0;childLayout=tableLayout;" parent="1" vertex="1">
                    <mxGeometry x="69.5" y="553" width="160" height="227" as="geometry"/>
                </mxCell>
                <mxCell id="181" value="" style="shape=tableRow;horizontal=0;startSize=0;swimlaneHead=0;swimlaneBody=0;top=0;left=0;bottom=0;right=0;collapsible=0;dropTarget=0;fillColor=none;points=[[0,0.5],[1,0.5]];portConstraint=eastwest;" parent="180" vertex="1">
                    <mxGeometry width="160" height="31" as="geometry"/>
                </mxCell>
                <mxCell id="182" value="Articles" style="shape=partialRectangle;html=1;whiteSpace=wrap;connectable=0;overflow=hidden;fillColor=none;top=0;left=0;bottom=0;right=0;pointerEvents=1;" parent="181" vertex="1">
                    <mxGeometry width="160" height="31" as="geometry">
                        <mxRectangle width="160" height="31" as="alternateBounds"/>
                    </mxGeometry>
                </mxCell>
                <mxCell id="183" value="" style="shape=tableRow;horizontal=0;startSize=0;swimlaneHead=0;swimlaneBody=0;top=0;left=0;bottom=0;right=0;collapsible=0;dropTarget=0;fillColor=none;points=[[0,0.5],[1,0.5]];portConstraint=eastwest;" parent="180" vertex="1">
                    <mxGeometry y="31" width="160" height="106" as="geometry"/>
                </mxCell>
                <mxCell id="184" value="# id: int&lt;br&gt;# title: string&lt;br&gt;# description: string&lt;br&gt;# content: string&lt;br&gt;# Articles : Articles" style="shape=partialRectangle;html=1;whiteSpace=wrap;connectable=0;overflow=hidden;fillColor=none;top=0;left=0;bottom=0;right=0;pointerEvents=1;align=left;" parent="183" vertex="1">
                    <mxGeometry width="160" height="106" as="geometry">
                        <mxRectangle width="160" height="106" as="alternateBounds"/>
                    </mxGeometry>
                </mxCell>
                <mxCell id="185" value="" style="shape=tableRow;horizontal=0;startSize=0;swimlaneHead=0;swimlaneBody=0;top=0;left=0;bottom=0;right=0;collapsible=0;dropTarget=0;fillColor=none;points=[[0,0.5],[1,0.5]];portConstraint=eastwest;" parent="180" vertex="1">
                    <mxGeometry y="137" width="160" height="90" as="geometry"/>
                </mxCell>
                <mxCell id="186" value="&lt;span style=&quot;&quot;&gt;+ addArticle&lt;/span&gt;&lt;span style=&quot;&quot;&gt;()&amp;nbsp;&lt;/span&gt;&lt;br style=&quot;&quot;&gt;&lt;span style=&quot;&quot;&gt;+ deleteArticle&lt;/span&gt;&lt;span style=&quot;&quot;&gt;(id:int)&amp;nbsp;&lt;/span&gt;&lt;br style=&quot;&quot;&gt;&lt;span style=&quot;&quot;&gt;+ updateArticle&lt;/span&gt;&lt;span style=&quot;&quot;&gt;(id:int)&amp;nbsp;&lt;/span&gt;&lt;br style=&quot;&quot;&gt;&lt;span style=&quot;&quot;&gt;+ getArticle&lt;/span&gt;&lt;span style=&quot;&quot;&gt;()&amp;nbsp;&lt;br&gt;+ totaleArticle()&amp;nbsp;&lt;br&gt;&lt;/span&gt;" style="shape=partialRectangle;html=1;whiteSpace=wrap;connectable=0;overflow=hidden;fillColor=none;top=0;left=0;bottom=0;right=0;pointerEvents=1;align=left;" parent="185" vertex="1">
                    <mxGeometry width="160" height="90" as="geometry">
                        <mxRectangle width="160" height="90" as="alternateBounds"/>
                    </mxGeometry>
                </mxCell>
                <mxCell id="187" value="" style="endArrow=none;html=1;entryX=0.475;entryY=0.999;entryDx=0;entryDy=0;entryPerimeter=0;" parent="1" source="181" target="112" edge="1">
                    <mxGeometry width="50" height="50" relative="1" as="geometry">
                        <mxPoint x="150.58000000000004" y="602.713" as="sourcePoint"/>
                        <mxPoint x="148.41999999999996" y="510" as="targetPoint"/>
                    </mxGeometry>
                </mxCell>
                <mxCell id="188" value="1.1" style="text;html=1;align=center;verticalAlign=middle;resizable=0;points=[];autosize=1;strokeColor=none;fillColor=none;" parent="1" vertex="1">
                    <mxGeometry x="140" y="485" width="40" height="30" as="geometry"/>
                </mxCell>
                <mxCell id="189" value="1.*" style="text;html=1;align=center;verticalAlign=middle;resizable=0;points=[];autosize=1;strokeColor=none;fillColor=none;" parent="1" vertex="1">
                    <mxGeometry x="140" y="525" width="40" height="30" as="geometry"/>
                </mxCell>
                <mxCell id="190" value="" style="endArrow=none;html=1;" parent="1" edge="1" target="185">
                    <mxGeometry width="50" height="50" relative="1" as="geometry">
                        <mxPoint x="140" y="870" as="sourcePoint"/>
                        <mxPoint x="140" y="793.64" as="targetPoint"/>
                    </mxGeometry>
                </mxCell>
                <mxCell id="191" value="1.1" style="text;html=1;align=center;verticalAlign=middle;resizable=0;points=[];autosize=1;strokeColor=none;fillColor=none;" parent="1" vertex="1">
                    <mxGeometry x="140" y="780" width="40" height="30" as="geometry"/>
                </mxCell>
                <mxCell id="192" value="1.*" style="text;html=1;align=center;verticalAlign=middle;resizable=0;points=[];autosize=1;strokeColor=none;fillColor=none;" parent="1" vertex="1">
                    <mxGeometry x="132" y="843" width="40" height="30" as="geometry"/>
                </mxCell>
            </root>
        </mxGraphModel>
    </diagram>
</mxfile>